<svg width="143" height="90" viewBox="0 0 143 90" fill="none" xmlns="http://www.w3.org/2000/svg">
<path d="M11.6001 7.53638H16.2212V8.84082C16.2212 9.24284 16.1323 9.59831 15.9546 9.90723C15.7769 10.2161 15.524 10.4542 15.196 10.6213C14.8681 10.7906 14.4915 10.8763 14.0662 10.8784H13.771C13.3351 10.8784 12.9532 10.7938 12.6252 10.6245C12.2973 10.4574 12.0455 10.2172 11.8699 9.90405C11.6943 9.59302 11.6043 9.23014 11.6001 8.81543V7.53638ZM15.7197 8.14575H12.0984V8.78687C12.0984 9.25659 12.2444 9.62158 12.5364 9.88184C12.8284 10.1442 13.2441 10.2754 13.7837 10.2754H14.0535C14.5782 10.2754 14.9855 10.1516 15.2754 9.90405C15.5674 9.65861 15.7155 9.30949 15.7197 8.85669V8.14575ZM13.7361 14.4141V12.4114H12.0984V14.7378H11.6001V11.802H16.2212V14.7061H15.7197L15.7197 12.4114H14.2344V14.4141H13.7361ZM13.6599 16.8579C13.8101 16.3353 13.9942 15.9544 14.2122 15.7153C14.4322 15.4784 14.703 15.3599 15.0247 15.3599C15.3886 15.3599 15.689 15.5048 15.926 15.7947C16.1651 16.0867 16.2847 16.4654 16.2847 16.9309C16.2847 17.2483 16.2233 17.5308 16.1006 17.7783C15.9779 18.028 15.8086 18.2205 15.5928 18.356C15.377 18.4935 15.141 18.5623 14.885 18.5623V17.9497C15.1643 17.9497 15.3833 17.8608 15.542 17.6831C15.7028 17.5054 15.7832 17.2546 15.7832 16.9309C15.7832 16.6305 15.7166 16.3956 15.5833 16.2263C15.4521 16.0592 15.269 15.9756 15.0342 15.9756C14.8459 15.9756 14.6861 16.0549 14.5549 16.2136C14.4259 16.3744 14.3074 16.6463 14.1995 17.0293C14.0916 17.4144 13.972 17.7148 13.8408 17.9307C13.7118 18.1486 13.5605 18.3094 13.387 18.4131C13.2135 18.5189 13.0093 18.5718 12.7744 18.5718C12.3999 18.5718 12.0994 18.4258 11.873 18.1338C11.6488 17.8418 11.5366 17.4514 11.5366 16.9626C11.5366 16.6453 11.5969 16.349 11.7175 16.074C11.8403 15.7989 12.0074 15.5863 12.219 15.436C12.4306 15.2879 12.6707 15.2139 12.9395 15.2139V15.8264C12.6602 15.8264 12.439 15.929 12.2761 16.1343C12.1153 16.3416 12.0349 16.6178 12.0349 16.9626C12.0349 17.2843 12.1005 17.5308 12.2317 17.7021C12.3629 17.8735 12.5417 17.9592 12.7681 17.9592C12.9945 17.9592 13.169 17.8799 13.2917 17.7212C13.4166 17.5625 13.5393 17.2747 13.6599 16.8579ZM15.7197 22.5486V21.0632H11.6001V20.457H15.7197V18.9749H16.2212L16.2212 22.5486H15.7197ZM12.8062 25.532V23.5959L11.6001 23.1611V22.5327L16.2212 24.2974V24.8306L11.6001 26.5984V25.9731L12.8062 25.532ZM13.3076 23.78V25.3511L15.469 24.564L13.3076 23.78ZM11.6001 30.772V30.1594L15.1611 27.833H11.6001V27.2205H16.2212V27.833L12.6443 30.1658H16.2212V30.772H11.6001ZM12.8062 34.4631V32.5271L11.6001 32.0923V31.4639L16.2212 33.2285V33.7617L11.6001 35.5295V34.9043L12.8062 34.4631ZM13.3076 32.7112V34.2822L15.469 33.4951L13.3076 32.7112ZM15.7197 38.9319V37.4465H11.6001V36.8403H15.7197V35.3582H16.2212V38.9319H15.7197ZM11.6001 40.2712V39.6619H16.2212V40.2712H11.6001ZM13.7615 44.9431C13.3087 44.9431 12.913 44.8669 12.5745 44.7146C12.238 44.5623 11.981 44.3464 11.8032 44.0671C11.6255 43.7878 11.5366 43.462 11.5366 43.0896C11.5366 42.7257 11.6255 42.403 11.8032 42.1216C11.9831 41.8402 12.238 41.6212 12.5681 41.4646C12.9003 41.3101 13.2843 41.2308 13.7202 41.2266H14.0535C14.4978 41.2266 14.8903 41.3038 15.231 41.4583C15.5716 41.6127 15.8319 41.8306 16.0117 42.1121C16.1937 42.3956 16.2847 42.7193 16.2847 43.0833C16.2847 43.4535 16.1947 43.7794 16.0149 44.0608C15.8372 44.3443 15.578 44.5623 15.2373 44.7146C14.8988 44.8669 14.5042 44.9431 14.0535 44.9431H13.7615ZM14.0598 44.3369C14.6078 44.3369 15.0278 44.2269 15.3198 44.0068C15.6139 43.7868 15.761 43.4789 15.761 43.0833C15.761 42.6982 15.6139 42.3945 15.3198 42.1724C15.0278 41.9523 14.6216 41.8391 14.1011 41.8328H13.7615C13.2304 41.8328 12.8125 41.9438 12.5078 42.166C12.2052 42.3903 12.054 42.6982 12.054 43.0896C12.054 43.4832 12.1968 43.7878 12.4824 44.0037C12.7702 44.2195 13.1817 44.3306 13.717 44.3369H14.0598ZM11.6001 49.4087V48.7961L15.1611 46.4697H11.6001V45.8572H16.2212V46.4697L12.6443 48.8025H16.2212V49.4087H11.6001ZM13.0664 55.5024C12.5776 55.4453 12.2 55.2644 11.9333 54.9597C11.6689 54.6571 11.5366 54.2541 11.5366 53.7505C11.5366 53.2046 11.7323 52.7666 12.1238 52.4365C12.5152 52.1086 13.0389 51.9446 13.6948 51.9446H14.1392C14.5687 51.9446 14.9464 52.0208 15.2722 52.1731C15.5981 52.3276 15.8477 52.5455 16.0212 52.8269C16.1969 53.1083 16.2847 53.4342 16.2847 53.8044C16.2847 54.2953 16.1471 54.6889 15.8721 54.9851C15.5991 55.2813 15.2204 55.4538 14.7358 55.5024V54.8899C15.104 54.837 15.3706 54.7217 15.5356 54.5439C15.7007 54.3683 15.7832 54.1218 15.7832 53.8044C15.7832 53.4151 15.6393 53.1094 15.3516 52.8872C15.0638 52.6672 14.6544 52.5571 14.1233 52.5571H13.6758C13.1743 52.5571 12.7755 52.6619 12.4792 52.8713C12.183 53.0808 12.0349 53.3739 12.0349 53.7505C12.0349 54.089 12.1111 54.3482 12.2634 54.5281C12.4179 54.71 12.6855 54.8306 13.0664 54.8899V55.5024ZM13.3489 56.0896C13.6853 56.0896 13.9879 56.1552 14.2566 56.2864C14.5253 56.4197 14.7327 56.6038 14.8787 56.8386C15.0247 57.0756 15.0977 57.3454 15.0977 57.6479C15.0977 58.1156 14.9358 58.4932 14.6121 58.781C14.2883 59.0709 13.8577 59.2158 13.3203 59.2158H13.2791C12.9447 59.2158 12.6443 59.1513 12.3777 59.0222C12.1132 58.8953 11.9069 58.7122 11.7588 58.4731C11.6107 58.2362 11.5366 57.9632 11.5366 57.6543C11.5366 57.1888 11.6985 56.8111 12.0222 56.5212C12.3459 56.2335 12.7744 56.0896 13.3076 56.0896H13.3489ZM13.2791 56.6799C12.8982 56.6799 12.5924 56.7677 12.3618 56.9434C12.1312 57.1211 12.0159 57.3581 12.0159 57.6543C12.0159 57.9526 12.1322 58.1896 12.365 58.3652C12.5999 58.5409 12.9278 58.6287 13.3489 58.6287C13.7255 58.6287 14.0302 58.5387 14.2629 58.3589C14.4978 58.1812 14.6152 57.9442 14.6152 57.6479C14.6152 57.3581 14.4999 57.1243 14.2693 56.9465C14.0387 56.7688 13.7086 56.6799 13.2791 56.6799ZM15.0342 60.5076L14.6025 60.5266C14.9326 60.789 15.0977 61.1318 15.0977 61.5549C15.0977 62.2807 14.6882 62.6467 13.8694 62.6531H11.6001V62.0659H13.8726C14.1201 62.0638 14.3031 62.0067 14.4216 61.8945C14.5401 61.7845 14.5994 61.6121 14.5994 61.3772C14.5994 61.1868 14.5486 61.0196 14.447 60.8757C14.3455 60.7319 14.2122 60.6197 14.0471 60.5393H11.6001V59.9521H15.0342V60.5076ZM15.0342 64.094L14.6025 64.113C14.9326 64.3754 15.0977 64.7182 15.0977 65.1414C15.0977 65.8671 14.6882 66.2332 13.8694 66.2395H11.6001V65.6523H13.8726C14.1201 65.6502 14.3031 65.5931 14.4216 65.481C14.5401 65.3709 14.5994 65.1985 14.5994 64.9636C14.5994 64.7732 14.5486 64.606 14.447 64.4622C14.3455 64.3183 14.2122 64.2061 14.0471 64.1257H11.6001V63.5386H15.0342V64.094ZM11.5366 68.55C11.5366 68.0846 11.689 67.7058 11.9937 67.4138C12.3005 67.1218 12.7099 66.9758 13.2219 66.9758H13.3298C13.6705 66.9758 13.9741 67.0404 14.2407 67.1694C14.5094 67.3006 14.7189 67.4826 14.8691 67.7153C15.0215 67.9502 15.0977 68.2041 15.0977 68.4771C15.0977 68.9235 14.9506 69.2705 14.6565 69.5181C14.3624 69.7656 13.9413 69.8894 13.3933 69.8894H13.1489L13.1489 67.563C12.8104 67.5715 12.5364 67.6698 12.3269 67.8582C12.1195 68.0486 12.0159 68.2898 12.0159 68.5818C12.0159 68.7891 12.0582 68.9648 12.1428 69.1086C12.2275 69.2525 12.3396 69.3784 12.4792 69.4863L12.2 69.845C11.7577 69.5572 11.5366 69.1256 11.5366 68.55ZM14.6152 68.4771C14.6152 68.2401 14.5285 68.0412 14.355 67.8804C14.1836 67.7196 13.9424 67.6201 13.6313 67.582V69.3022H13.6758C13.9741 69.2853 14.2048 69.2049 14.3677 69.061C14.5327 68.9172 14.6152 68.7225 14.6152 68.4771ZM12.0159 71.9492C12.0159 72.1587 12.0793 72.3417 12.2063 72.4983C12.3333 72.6549 12.4919 72.7416 12.6824 72.7585V73.314C12.4856 73.3034 12.2983 73.2357 12.1206 73.1108C11.9429 72.986 11.8011 72.8188 11.6953 72.6094C11.5895 72.402 11.5366 72.182 11.5366 71.9492C11.5366 71.4816 11.6921 71.1092 12.0032 70.832C12.3163 70.557 12.7437 70.4194 13.2854 70.4194H13.3838C13.7181 70.4194 14.0154 70.4808 14.2756 70.6035C14.5359 70.7262 14.738 70.9019 14.8818 71.1304C15.0257 71.361 15.0977 71.6329 15.0977 71.946C15.0977 72.3311 14.9823 72.6506 14.7517 72.9045C14.5211 73.1606 14.2217 73.297 13.8535 73.314V72.7585C14.0757 72.7416 14.2576 72.657 14.3994 72.5046C14.5433 72.3544 14.6152 72.1682 14.6152 71.946C14.6152 71.6477 14.5073 71.416 14.2915 71.251C14.0778 71.0881 13.7678 71.0066 13.3616 71.0066H13.2505C12.8548 71.0066 12.5501 71.0881 12.3364 71.251C12.1227 71.4139 12.0159 71.6466 12.0159 71.9492ZM15.8657 74.7708H15.0342V75.4119H14.5803V74.7708H12.4507C12.3132 74.7708 12.2095 74.7993 12.1396 74.8564C12.0719 74.9136 12.0381 75.0109 12.0381 75.1484C12.0381 75.2161 12.0508 75.3092 12.0762 75.4277H11.6001C11.5578 75.2733 11.5366 75.123 11.5366 74.9771C11.5366 74.7147 11.616 74.5168 11.7747 74.3835C11.9333 74.2502 12.1587 74.1836 12.4507 74.1836H14.5803V73.5583H15.0342V74.1836H15.8657V74.7708Z" fill="black"/>
<g filter="url(#filter0_d)">
<path d="M17.9985 76V4.90625H38.0669C44.2518 4.90625 49.7205 6.27344 54.4731 9.00781C59.2257 11.7422 62.8879 15.6322 65.4595 20.6777C68.0636 25.7233 69.382 31.5176 69.4146 38.0605V42.6016C69.4146 49.3073 68.1125 55.1829 65.5083 60.2285C62.9367 65.2741 59.242 69.1478 54.4243 71.8496C49.6392 74.5514 44.0565 75.9349 37.6763 76H17.9985ZM27.3735 12.6211V68.334H37.2368C44.4634 68.334 50.0786 66.0879 54.0825 61.5957C58.119 57.1035 60.1372 50.707 60.1372 42.4062V38.2559C60.1372 30.1829 58.2329 23.9167 54.4243 19.457C50.6483 14.9648 45.2772 12.6862 38.311 12.6211H27.3735Z" fill="#F6A020"/>
</g>
<g clip-path="url(#clip0)">
<path d="M55.4998 50.1734C55.4998 53.6504 52.5704 56.5001 48.9179 56.5001C45.2653 56.5001 42.3359 53.6504 42.3359 50.1734C42.3359 46.6964 45.2653 43.8467 48.9179 43.8467C52.5704 43.8467 55.4998 46.6964 55.4998 50.1734Z" fill="#C4C4C4" fill-opacity="0.01" stroke="black"/>
<path d="M52.5011 55.2933C53.1294 55.2933 53.6388 54.7839 53.6388 54.1555V54.1555C53.6388 53.552 53.3901 52.9732 52.9474 52.5464C52.5047 52.1197 51.9043 51.8799 51.2782 51.8799H46.5569C45.9308 51.8799 45.3304 52.1197 44.8877 52.5464C44.445 52.9732 44.1963 53.552 44.1963 54.1555V54.1555" stroke="#090A0A" stroke-width="1.5" stroke-linecap="round" stroke-linejoin="round"/>
<path d="M48.9176 49.6044C50.2213 49.6044 51.2782 48.5856 51.2782 47.3288C51.2782 46.072 50.2213 45.0532 48.9176 45.0532C47.6138 45.0532 46.5569 46.072 46.5569 47.3288C46.5569 48.5856 47.6138 49.6044 48.9176 49.6044Z" stroke="#090A0A" stroke-width="1.5" stroke-linecap="round" stroke-linejoin="round"/>
</g>
<g clip-path="url(#clip1)">
<path d="M40.0081 37.8001C40.0081 40.5702 37.6732 42.8468 34.7541 42.8468C31.8349 42.8468 29.5 40.5702 29.5 37.8001C29.5 35.03 31.8349 32.7534 34.7541 32.7534C37.6732 32.7534 40.0081 35.03 40.0081 37.8001Z" fill="#C4C4C4" fill-opacity="0.01" stroke="black"/>
<path d="M37.6656 41.9602C38.1762 41.9602 38.59 41.5463 38.59 41.0357V41.0357C38.59 40.5454 38.388 40.0751 38.0283 39.7284C37.6686 39.3816 37.1807 39.1868 36.672 39.1868H32.836C32.3273 39.1868 31.8394 39.3816 31.4797 39.7284C31.12 40.0751 30.918 40.5454 30.918 41.0357V41.0357" stroke="#090A0A" stroke-width="1.5" stroke-linecap="round" stroke-linejoin="round"/>
<path d="M34.754 37.3379C35.8133 37.3379 36.672 36.5102 36.672 35.489C36.672 34.4679 35.8133 33.6401 34.754 33.6401C33.6947 33.6401 32.836 34.4679 32.836 35.489C32.836 36.5102 33.6947 37.3379 34.754 37.3379Z" stroke="#090A0A" stroke-width="1.5" stroke-linecap="round" stroke-linejoin="round"/>
</g>
<g clip-path="url(#clip2)">
<path d="M54.1722 29.2667C54.1722 31.3298 52.4319 33.0334 50.246 33.0334C48.0602 33.0334 46.3198 31.3298 46.3198 29.2667C46.3198 27.2035 48.0602 25.5 50.246 25.5C52.4319 25.5 54.1722 27.2035 54.1722 29.2667Z" fill="#C4C4C4" fill-opacity="0.01" stroke="black"/>
<path d="M52.4859 32.4669C52.8786 32.4669 53.197 32.1486 53.197 31.7558V31.7558C53.197 31.3786 53.0416 31.0169 52.7649 30.7501C52.4882 30.4834 52.1129 30.3336 51.7216 30.3336H48.7708C48.3795 30.3336 48.0042 30.4834 47.7275 30.7501C47.4509 31.0169 47.2954 31.3786 47.2954 31.7558V31.7558" stroke="#090A0A" stroke-width="1.5" stroke-linecap="round" stroke-linejoin="round"/>
<path d="M50.2462 28.9114C51.061 28.9114 51.7216 28.2746 51.7216 27.4891C51.7216 26.7036 51.061 26.0669 50.2462 26.0669C49.4314 26.0669 48.7708 26.7036 48.7708 27.4891C48.7708 28.2746 49.4314 28.9114 50.2462 28.9114Z" stroke="#090A0A" stroke-width="1.5" stroke-linecap="round" stroke-linejoin="round"/>
</g>
<path d="M50.0865 26H50.4055V24H50.0865V26ZM50.4055 32.5334H50.0865V34.5334H50.4055V32.5334ZM50.0865 32.5334C48.2824 32.5334 46.8198 31.0708 46.8198 29.2667H44.8198C44.8198 32.1754 47.1778 34.5334 50.0865 34.5334V32.5334ZM53.6722 29.2667C53.6722 31.0708 52.2097 32.5334 50.4055 32.5334V34.5334C53.3142 34.5334 55.6722 32.1754 55.6722 29.2667H53.6722ZM50.4055 26C52.2097 26 53.6722 27.4625 53.6722 29.2667H55.6722C55.6722 26.358 53.3142 24 50.4055 24V26ZM50.0865 24C47.1778 24 44.8198 26.358 44.8198 29.2667H46.8198C46.8198 27.4625 48.2824 26 50.0865 26V24Z" fill="black"/>
<line y1="-0.75" x2="7.08795" y2="-0.75" transform="matrix(-0.749362 -0.662161 0.689106 -0.724661 44.0488 45.48)" stroke="black" stroke-width="1.5"/>
<line y1="-0.75" x2="8.65005" y2="-0.75" transform="matrix(-0.869884 0.493257 -0.5209 -0.853618 46.7046 30.5464)" stroke="black" stroke-width="1.5"/>
<defs>
<filter id="filter0_d" x="13.9985" y="4.90625" width="59.416" height="79.0938" filterUnits="userSpaceOnUse" color-interpolation-filters="sRGB">
<feFlood flood-opacity="0" result="BackgroundImageFix"/>
<feColorMatrix in="SourceAlpha" type="matrix" values="0 0 0 0 0 0 0 0 0 0 0 0 0 0 0 0 0 0 127 0" result="hardAlpha"/>
<feOffset dy="4"/>
<feGaussianBlur stdDeviation="2"/>
<feComposite in2="hardAlpha" operator="out"/>
<feColorMatrix type="matrix" values="0 0 0 0 0 0 0 0 0 0 0 0 0 0 0 0 0 0 0.25 0"/>
<feBlend mode="normal" in2="BackgroundImageFix" result="effect1_dropShadow"/>
<feBlend mode="normal" in="SourceGraphic" in2="effect1_dropShadow" result="shape"/>
</filter>
<clipPath id="clip0">
<path d="M41.8359 50.1734C41.8359 46.4031 44.8924 43.3467 48.6626 43.3467H49.1731C52.9433 43.3467 55.9998 46.4031 55.9998 50.1734C55.9998 53.9437 52.9433 57.0001 49.1731 57.0001H48.6627C44.8924 57.0001 41.8359 53.9437 41.8359 50.1734Z" fill="white"/>
</clipPath>
<clipPath id="clip1">
<path d="M29 37.8001C29 34.7368 31.4833 32.2534 34.5467 32.2534H34.9614C38.0248 32.2534 40.5081 34.7368 40.5081 37.8001C40.5081 40.8635 38.0248 43.3468 34.9614 43.3468H34.5467C31.4833 43.3468 29 40.8635 29 37.8001Z" fill="white"/>
</clipPath>
<clipPath id="clip2">
<path d="M45.8198 29.2667C45.8198 26.9103 47.7301 25 50.0865 25H50.4055C52.762 25 54.6722 26.9103 54.6722 29.2667C54.6722 31.6231 52.762 33.5334 50.4055 33.5334H50.0865C47.7301 33.5334 45.8198 31.6231 45.8198 29.2667Z" fill="white"/>
</clipPath>
</defs>
</svg>
