<svg width="44" height="44" viewBox="0 0 44 44" fill="none" xmlns="http://www.w3.org/2000/svg">
<circle cx="22" cy="22" r="22" fill="#EAEAEA"/>
<path fill-rule="evenodd" clip-rule="evenodd" d="M11.958 24.3714C10.7041 23.1223 10 21.434 10 19.6738C10 17.9038 10.7115 16.2058 11.979 14.9542C13.2464 13.7026 14.966 13 16.7585 13C18.551 13 20.2705 13.7026 21.538 14.9542L22 15.4104L22.462 14.9542C23.7295 13.7026 25.4478 13 27.2403 13C29.034 13 30.7523 13.7026 32.0198 14.9542C33.2872 16.2058 34 17.9038 34 19.6738C34 21.434 33.2959 23.1223 32.0408 24.3714L22.8721 33.9582C22.6461 34.1949 22.3298 34.329 22 34.329C21.6702 34.329 21.3539 34.1949 21.1279 33.9582L11.958 24.3714ZM22 31.4185L30.2989 22.7417L30.3237 22.7173C31.1402 21.9098 31.5998 20.8156 31.5998 19.6738C31.5998 18.532 31.1402 17.4378 30.3237 16.6303C29.5059 15.8227 28.3965 15.3689 27.2403 15.3689C26.0852 15.3689 24.9759 15.8227 24.1581 16.6303L22.8487 17.9245C22.3793 18.3868 21.6195 18.3868 21.1513 17.9245L19.8406 16.6303C19.0241 15.8227 17.9148 15.3689 16.7585 15.3689C15.6022 15.3689 14.4941 15.8227 13.6763 16.6303C12.8586 17.4378 12.4002 18.532 12.4002 19.6738C12.4002 20.8156 12.8586 21.9098 13.6763 22.7173C13.685 22.7258 13.6924 22.7332 13.6998 22.7417L22 31.4185Z" fill="#E36C14"/>
</svg>
