<svg width="30" height="28" viewBox="0 0 30 28" fill="none" xmlns="http://www.w3.org/2000/svg">
<path d="M20.3332 9.6665C22.4549 9.6665 24.4897 10.5094 25.99 12.0097C27.4903 13.5099 28.3332 15.5448 28.3332 17.6665V26.9998H22.9998V17.6665C22.9998 16.9593 22.7189 16.281 22.2188 15.7809C21.7187 15.2808 21.0404 14.9998 20.3332 14.9998C19.6259 14.9998 18.9477 15.2808 18.4476 15.7809C17.9475 16.281 17.6665 16.9593 17.6665 17.6665V26.9998H12.3332V17.6665C12.3332 15.5448 13.176 13.5099 14.6763 12.0097C16.1766 10.5094 18.2114 9.6665 20.3332 9.6665Z" stroke="#090A0A" stroke-width="1.5" stroke-linecap="round" stroke-linejoin="round"/>
<path d="M6.99984 10.9998H1.6665V26.9998H6.99984V10.9998Z" stroke="#090A0A" stroke-width="1.5" stroke-linecap="round" stroke-linejoin="round"/>
<path d="M4.33317 6.99984C5.80593 6.99984 6.99984 5.80593 6.99984 4.33317C6.99984 2.86041 5.80593 1.6665 4.33317 1.6665C2.86041 1.6665 1.6665 2.86041 1.6665 4.33317C1.6665 5.80593 2.86041 6.99984 4.33317 6.99984Z" stroke="#090A0A" stroke-width="1.5" stroke-linecap="round" stroke-linejoin="round"/>
</svg>
