<svg width="98" height="38" viewBox="0 0 98 38" fill="none" xmlns="http://www.w3.org/2000/svg">
<rect x="0.5" y="0.5" width="97" height="37" rx="7.5" stroke="#E36C14"/>
<path d="M43.5312 13.625L46.8125 22.3438L50.0859 13.625H52.6406V25H50.6719V21.25L50.8672 16.2344L47.5078 25H46.0938L42.7422 16.2422L42.9375 21.25V25H40.9688V13.625H43.5312ZM54.4453 20.6953C54.4453 19.8672 54.6094 19.1224 54.9375 18.4609C55.2656 17.7943 55.7266 17.2839 56.3203 16.9297C56.9141 16.5703 57.5964 16.3906 58.3672 16.3906C59.5078 16.3906 60.4323 16.7578 61.1406 17.4922C61.8542 18.2266 62.2396 19.2005 62.2969 20.4141L62.3047 20.8594C62.3047 21.6927 62.1432 22.4375 61.8203 23.0938C61.5026 23.75 61.0443 24.2578 60.4453 24.6172C59.8516 24.9766 59.1641 25.1562 58.3828 25.1562C57.1901 25.1562 56.2344 24.7604 55.5156 23.9688C54.8021 23.1719 54.4453 22.112 54.4453 20.7891V20.6953ZM56.3438 20.8594C56.3438 21.7292 56.5234 22.4115 56.8828 22.9062C57.2422 23.3958 57.7422 23.6406 58.3828 23.6406C59.0234 23.6406 59.5208 23.3906 59.875 22.8906C60.2344 22.3906 60.4141 21.6589 60.4141 20.6953C60.4141 19.8411 60.2292 19.1641 59.8594 18.6641C59.4948 18.1641 58.9974 17.9141 58.3672 17.9141C57.7474 17.9141 57.2552 18.1615 56.8906 18.6562C56.526 19.1458 56.3438 19.8802 56.3438 20.8594ZM68.3359 18.2812C68.0859 18.2396 67.8281 18.2188 67.5625 18.2188C66.6927 18.2188 66.1068 18.5521 65.8047 19.2188V25H63.9062V16.5469H65.7188L65.7656 17.4922C66.224 16.7578 66.8594 16.3906 67.6719 16.3906C67.9427 16.3906 68.1667 16.4271 68.3438 16.5L68.3359 18.2812ZM73.1016 25.1562C71.8984 25.1562 70.9219 24.7786 70.1719 24.0234C69.4271 23.263 69.0547 22.2526 69.0547 20.9922V20.7578C69.0547 19.9141 69.2161 19.1615 69.5391 18.5C69.8672 17.8333 70.3255 17.3151 70.9141 16.9453C71.5026 16.5755 72.1589 16.3906 72.8828 16.3906C74.0339 16.3906 74.9219 16.7578 75.5469 17.4922C76.1771 18.2266 76.4922 19.2656 76.4922 20.6094V21.375H70.9688C71.026 22.0729 71.2578 22.625 71.6641 23.0312C72.0755 23.4375 72.5911 23.6406 73.2109 23.6406C74.0807 23.6406 74.7891 23.2891 75.3359 22.5859L76.3594 23.5625C76.0208 24.0677 75.5677 24.4609 75 24.7422C74.4375 25.0182 73.8047 25.1562 73.1016 25.1562ZM72.875 17.9141C72.3542 17.9141 71.9323 18.0964 71.6094 18.4609C71.2917 18.8255 71.0885 19.3333 71 19.9844H74.6172V19.8438C74.5755 19.2083 74.4062 18.7292 74.1094 18.4062C73.8125 18.0781 73.401 17.9141 72.875 17.9141Z" fill="#E36C14"/>
<path d="M23.9434 25.7997C25.4539 25.7997 26.6784 24.6002 26.6784 23.1205C26.6784 21.6409 25.4539 20.4414 23.9434 20.4414C22.433 20.4414 21.2085 21.6409 21.2085 23.1205C21.2085 24.6002 22.433 25.7997 23.9434 25.7997Z" stroke="#E36C14" stroke-width="1.2" stroke-miterlimit="10" stroke-linecap="round" stroke-linejoin="round"/>
<path d="M21.2084 23.1206H17.354" stroke="#E36C14" stroke-width="1.2" stroke-miterlimit="10" stroke-linecap="round" stroke-linejoin="round"/>
<path d="M33.6746 23.1206H26.8945" stroke="#E36C14" stroke-width="1.2" stroke-miterlimit="10" stroke-linecap="round" stroke-linejoin="round"/>
<path d="M27.0855 16.454C28.596 16.454 29.8205 15.2545 29.8205 13.7748C29.8205 12.2952 28.596 11.0957 27.0855 11.0957C25.5751 11.0957 24.3506 12.2952 24.3506 13.7748C24.3506 15.2545 25.5751 16.454 27.0855 16.454Z" stroke="#E36C14" stroke-width="1.2" stroke-miterlimit="10" stroke-linecap="round" stroke-linejoin="round"/>
<path d="M29.833 13.7749H33.6874" stroke="#E36C14" stroke-width="1.2" stroke-miterlimit="10" stroke-linecap="round" stroke-linejoin="round"/>
<path d="M17.354 13.7749H24.1341" stroke="#E36C14" stroke-width="1.2" stroke-miterlimit="10" stroke-linecap="round" stroke-linejoin="round"/>
</svg>
