<svg width="33" height="22" viewBox="0 0 33 22" fill="none" xmlns="http://www.w3.org/2000/svg">
<ellipse cx="16.5003" cy="11" rx="11.22" ry="11" fill="#C4C4C4"/>
<path d="M14.77 14.1657C14.7067 13.507 14.7384 12.9497 14.865 12.4937C14.9917 12.025 15.1627 11.626 15.378 11.2967C15.606 10.9547 15.8594 10.6633 16.138 10.4227C16.4294 10.1693 16.6954 9.92868 16.936 9.70068C17.1894 9.47268 17.3984 9.23834 17.563 8.99768C17.7277 8.74434 17.81 8.44668 17.81 8.10468C17.81 7.66134 17.6834 7.30668 17.43 7.04068C17.1894 6.77468 16.7524 6.64168 16.119 6.64168C15.9164 6.64168 15.701 6.66701 15.473 6.71768C15.245 6.75568 15.017 6.81901 14.789 6.90768C14.561 6.98367 14.3394 7.07867 14.124 7.19267C13.9214 7.29401 13.7377 7.40168 13.573 7.51568L12.623 5.69167C13.1044 5.36234 13.6554 5.09001 14.276 4.87468C14.9094 4.65934 15.6694 4.55167 16.556 4.55167C17.7467 4.55167 18.6777 4.84301 19.349 5.42567C20.0204 5.99568 20.356 6.76834 20.356 7.74368C20.356 8.38968 20.2674 8.92801 20.09 9.35868C19.9254 9.77668 19.7164 10.1377 19.463 10.4417C19.2097 10.733 18.931 10.9927 18.627 11.2207C18.323 11.4487 18.0444 11.6957 17.791 11.9617C17.5377 12.215 17.3224 12.5127 17.145 12.8547C16.9677 13.1967 16.879 13.6337 16.879 14.1657H14.77ZM14.39 16.8637C14.39 16.4203 14.5294 16.072 14.808 15.8187C15.0867 15.5527 15.454 15.4197 15.91 15.4197C16.3914 15.4197 16.7714 15.5527 17.05 15.8187C17.3287 16.072 17.468 16.4203 17.468 16.8637C17.468 17.307 17.3287 17.6617 17.05 17.9277C16.7714 18.1937 16.3914 18.3267 15.91 18.3267C15.454 18.3267 15.0867 18.1937 14.808 17.9277C14.5294 17.6617 14.39 17.307 14.39 16.8637Z" fill="white"/>
</svg>
