<svg width="98" height="38" viewBox="0 0 98 38" fill="none" xmlns="http://www.w3.org/2000/svg">
<rect x="0.5" y="0.5" width="97" height="37" rx="7.5" stroke="#E36C14"/>
<path d="M49.1875 15.2188H45.6406V25H43.6797V15.2188H40.1641V13.625H49.1875V15.2188ZM54.2422 25C54.1589 24.8385 54.0859 24.5755 54.0234 24.2109C53.4193 24.8411 52.6797 25.1562 51.8047 25.1562C50.9557 25.1562 50.263 24.9141 49.7266 24.4297C49.1901 23.9453 48.9219 23.3464 48.9219 22.6328C48.9219 21.7318 49.2552 21.0417 49.9219 20.5625C50.5938 20.0781 51.5521 19.8359 52.7969 19.8359H53.9609V19.2812C53.9609 18.8438 53.8385 18.4948 53.5938 18.2344C53.349 17.9688 52.9766 17.8359 52.4766 17.8359C52.0443 17.8359 51.6901 17.9453 51.4141 18.1641C51.138 18.3776 51 18.651 51 18.9844H49.1016C49.1016 18.5208 49.2552 18.0885 49.5625 17.6875C49.8698 17.2812 50.2865 16.9635 50.8125 16.7344C51.3438 16.5052 51.9349 16.3906 52.5859 16.3906C53.5755 16.3906 54.3646 16.6406 54.9531 17.1406C55.5417 17.6354 55.8438 18.3333 55.8594 19.2344V23.0469C55.8594 23.8073 55.9661 24.4141 56.1797 24.8672V25H54.2422ZM52.1562 23.6328C52.5312 23.6328 52.8828 23.5417 53.2109 23.3594C53.5443 23.1771 53.7943 22.9323 53.9609 22.625V21.0312H52.9375C52.2344 21.0312 51.7057 21.1536 51.3516 21.3984C50.9974 21.6432 50.8203 21.9896 50.8203 22.4375C50.8203 22.8021 50.9401 23.0938 51.1797 23.3125C51.4245 23.526 51.75 23.6328 52.1562 23.6328ZM57.5156 20.7109C57.5156 19.3984 57.8229 18.3516 58.4375 17.5703C59.0573 16.7839 59.8776 16.3906 60.8984 16.3906C61.862 16.3906 62.6198 16.7266 63.1719 17.3984L63.2578 16.5469H64.9688V24.7422C64.9688 25.8516 64.6224 26.7266 63.9297 27.3672C63.2422 28.0078 62.3125 28.3281 61.1406 28.3281C60.5208 28.3281 59.9141 28.1979 59.3203 27.9375C58.7318 27.6823 58.2839 27.3464 57.9766 26.9297L58.875 25.7891C59.4583 26.4818 60.1771 26.8281 61.0312 26.8281C61.6615 26.8281 62.1589 26.6562 62.5234 26.3125C62.888 25.974 63.0703 25.474 63.0703 24.8125V24.2422C62.5234 24.8516 61.7943 25.1562 60.8828 25.1562C59.8932 25.1562 59.0833 24.763 58.4531 23.9766C57.8281 23.1901 57.5156 22.1016 57.5156 20.7109ZM59.4062 20.875C59.4062 21.724 59.5781 22.3932 59.9219 22.8828C60.2708 23.3672 60.7526 23.6094 61.3672 23.6094C62.1328 23.6094 62.7005 23.2812 63.0703 22.625V18.9062C62.7109 18.2656 62.1484 17.9453 61.3828 17.9453C60.7578 17.9453 60.2708 18.1927 59.9219 18.6875C59.5781 19.1823 59.4062 19.9115 59.4062 20.875ZM71.6641 22.7031C71.6641 22.3646 71.5234 22.1068 71.2422 21.9297C70.9661 21.7526 70.5052 21.5964 69.8594 21.4609C69.2135 21.3255 68.6745 21.1536 68.2422 20.9453C67.2943 20.487 66.8203 19.8229 66.8203 18.9531C66.8203 18.224 67.1276 17.6146 67.7422 17.125C68.3568 16.6354 69.138 16.3906 70.0859 16.3906C71.0964 16.3906 71.9115 16.6406 72.5312 17.1406C73.1562 17.6406 73.4688 18.2891 73.4688 19.0859H71.5703C71.5703 18.7214 71.4349 18.4193 71.1641 18.1797C70.8932 17.9349 70.5339 17.8125 70.0859 17.8125C69.6693 17.8125 69.3281 17.9089 69.0625 18.1016C68.8021 18.2943 68.6719 18.5521 68.6719 18.875C68.6719 19.1667 68.7943 19.3932 69.0391 19.5547C69.2839 19.7161 69.7786 19.8802 70.5234 20.0469C71.2682 20.2083 71.8516 20.4036 72.2734 20.6328C72.7005 20.8568 73.0156 21.1276 73.2188 21.4453C73.4271 21.763 73.5312 22.1484 73.5312 22.6016C73.5312 23.362 73.2161 23.9792 72.5859 24.4531C71.9557 24.9219 71.1302 25.1562 70.1094 25.1562C69.4167 25.1562 68.7995 25.0312 68.2578 24.7812C67.7161 24.5312 67.2943 24.1875 66.9922 23.75C66.6901 23.3125 66.5391 22.8411 66.5391 22.3359H68.3828C68.4089 22.7839 68.5781 23.1302 68.8906 23.375C69.2031 23.6146 69.6172 23.7344 70.1328 23.7344C70.6328 23.7344 71.013 23.6406 71.2734 23.4531C71.5339 23.2604 71.6641 23.0104 71.6641 22.7031Z" fill="#E36C14"/>
<path d="M28.0728 16C28.9184 16 29.604 15.3284 29.604 14.5C29.604 13.6716 28.9184 13 28.0728 13C27.2271 13 26.5415 13.6716 26.5415 14.5C26.5415 15.3284 27.2271 16 28.0728 16Z" stroke="#E36C14" stroke-miterlimit="10" stroke-linecap="round"/>
<path d="M32.6668 10.9091C32.6668 10.4069 32.2514 10 31.7388 10C31.6809 10 26.2167 10.0007 26.2167 10.0007C25.723 10.0007 25.2504 9.97527 24.9765 10.2436L16.5392 18.5085C16.2649 18.7768 16.2649 19.2125 16.5392 19.4808L22.9886 25.7987C23.2626 26.0671 23.7073 26.0671 23.9813 25.7987L32.4181 17.5335C32.6921 17.2655 32.6661 16.8135 32.6661 16.319C32.6661 16.319 32.6668 10.9658 32.6668 10.9091Z" stroke="#E36C14" stroke-miterlimit="10" stroke-linecap="round"/>
</svg>
